<svg width="866" height="1497" viewBox="0 0 866 1497" fill="none" xmlns="http://www.w3.org/2000/svg">
<g filter="url(#filter0_f_14_3)">
<path d="M433.134 1018.53C582.353 1018.53 703.319 897.565 703.319 748.347C703.319 599.128 582.353 478.162 433.134 478.162C283.915 478.162 162.949 599.128 162.949 748.347C162.949 897.565 283.915 1018.53 433.134 1018.53Z" fill="black" stroke="black" stroke-width="4.05277" stroke-linejoin="round"/>
<path d="M433.267 464.046C283.266 464.046 160.394 580.158 149.603 727.405H304.823C309.825 696.751 325.561 668.874 349.222 648.752C372.882 628.631 402.925 617.576 433.984 617.563C465.103 617.608 495.188 628.735 518.847 648.95C542.505 669.165 558.19 697.146 563.089 727.877H563.192V727.405H716.664C704.327 599.129 582.17 464.046 433.267 464.046Z" fill="black" stroke="black" stroke-width="4.26667" stroke-linejoin="round"/>
<path d="M433.134 651.434C407.431 651.434 382.782 661.644 364.607 679.819C346.433 697.993 336.223 722.643 336.223 748.345C336.222 761.072 338.729 773.674 343.599 785.432C348.469 797.19 355.607 807.874 364.606 816.873C373.605 825.872 384.289 833.011 396.047 837.882C407.805 842.752 420.407 845.259 433.134 845.259C445.861 845.259 458.463 842.752 470.221 837.882C481.979 833.011 492.662 825.873 501.661 816.873C510.66 807.874 517.799 797.19 522.669 785.432C527.539 773.674 530.045 761.072 530.045 748.345C530.045 722.643 519.835 697.993 501.66 679.819C483.486 661.644 458.836 651.434 433.134 651.434ZM433.134 713.287C442.432 713.286 451.35 716.98 457.925 723.555C464.5 730.129 468.194 739.047 468.195 748.345C468.195 752.949 467.288 757.509 465.526 761.763C463.765 766.016 461.182 769.882 457.926 773.138C454.67 776.393 450.805 778.976 446.551 780.738C442.297 782.5 437.738 783.406 433.134 783.406C423.835 783.406 414.918 779.712 408.343 773.137C401.768 766.561 398.075 757.643 398.075 748.345C398.076 739.047 401.77 730.13 408.344 723.556C414.919 716.981 423.836 713.287 433.134 713.287Z" fill="black" stroke="black" stroke-width="4.26667" stroke-linejoin="round"/>
<path d="M148.831 756.21C153.073 909.601 278.743 1032.65 433.159 1032.65C587.134 1032.65 712.517 888.205 717.437 756.21H564.523C562.484 789.48 547.833 820.719 523.557 843.56C499.281 866.4 467.207 879.121 433.876 879.13C400.565 879.09 368.522 866.355 344.272 843.518C320.021 820.681 305.388 789.459 303.351 756.21H148.831Z" fill="black" stroke="black" stroke-width="4.26667" stroke-linejoin="round"/>
<path d="M433.267 464.046C283.266 464.046 160.394 580.158 149.603 727.405H304.823C309.825 696.751 325.561 668.874 349.222 648.752C372.882 628.631 402.925 617.576 433.984 617.563C465.103 617.608 495.188 628.735 518.847 648.95C542.505 669.165 558.19 697.146 563.089 727.877H563.192V727.405H716.664C704.327 599.129 582.17 464.046 433.267 464.046Z" fill="black" stroke="black" stroke-width="4.26667" stroke-linejoin="round"/>
</g>
<path d="M433.134 1018.53C582.353 1018.53 703.319 897.565 703.319 748.347C703.319 599.128 582.353 478.162 433.134 478.162C283.915 478.162 162.949 599.128 162.949 748.347C162.949 897.565 283.915 1018.53 433.134 1018.53Z" fill="black" stroke="black" stroke-width="4.05277" stroke-linejoin="round"/>
<path d="M433.267 464.046C283.266 464.046 160.394 580.158 149.603 727.405H304.823C309.825 696.751 325.561 668.874 349.222 648.752C372.882 628.631 402.925 617.576 433.984 617.563C465.103 617.608 495.188 628.735 518.847 648.95C542.505 669.165 558.19 697.146 563.089 727.877H563.192V727.405H716.664C704.327 599.129 582.17 464.046 433.267 464.046Z" fill="#FF0000" stroke="black" stroke-width="4.26667" stroke-linejoin="round"/>
<path d="M433.134 651.434C407.431 651.434 382.782 661.644 364.607 679.819C346.433 697.993 336.223 722.643 336.223 748.345C336.222 761.072 338.729 773.674 343.599 785.432C348.469 797.19 355.607 807.874 364.606 816.873C373.605 825.872 384.289 833.011 396.047 837.882C407.805 842.752 420.407 845.259 433.134 845.259C445.861 845.259 458.463 842.752 470.221 837.882C481.979 833.011 492.662 825.873 501.661 816.873C510.66 807.874 517.799 797.19 522.669 785.432C527.539 773.674 530.045 761.072 530.045 748.345C530.045 722.643 519.835 697.993 501.66 679.819C483.486 661.644 458.836 651.434 433.134 651.434ZM433.134 713.287C442.432 713.286 451.35 716.98 457.925 723.555C464.5 730.129 468.194 739.047 468.195 748.345C468.195 752.949 467.288 757.509 465.526 761.763C463.765 766.016 461.182 769.882 457.926 773.138C454.67 776.393 450.805 778.976 446.551 780.738C442.297 782.5 437.738 783.406 433.134 783.406C423.835 783.406 414.918 779.712 408.343 773.137C401.768 766.561 398.075 757.643 398.075 748.345C398.076 739.047 401.77 730.13 408.344 723.556C414.919 716.981 423.836 713.287 433.134 713.287Z" fill="#F2F2F2" stroke="black" stroke-width="4.26667" stroke-linejoin="round"/>
<path d="M148.831 756.21C153.073 909.601 278.743 1032.65 433.159 1032.65C587.134 1032.65 712.517 888.205 717.437 756.21H564.523C562.484 789.48 547.833 820.719 523.557 843.56C499.281 866.4 467.207 879.121 433.876 879.13C400.565 879.09 368.522 866.355 344.272 843.518C320.021 820.681 305.388 789.459 303.351 756.21H148.831Z" fill="#F9F9F9" stroke="black" stroke-width="4.26667" stroke-linejoin="round"/>
<path d="M433.267 464.046C283.266 464.046 160.394 580.158 149.603 727.405H304.823C309.825 696.751 325.561 668.874 349.222 648.752C372.882 628.631 402.925 617.576 433.984 617.563C465.103 617.608 495.188 628.735 518.847 648.95C542.505 669.165 558.19 697.146 563.089 727.877H563.192V727.405H716.664C704.327 599.129 582.17 464.046 433.267 464.046Z" fill="url(#paint0_linear_14_3)" stroke="black" stroke-width="4.26667" stroke-linejoin="round"/>
<defs>
<filter id="filter0_f_14_3" x="129.64" y="444.855" width="606.988" height="606.983" filterUnits="userSpaceOnUse" color-interpolation-filters="sRGB">
<feFlood flood-opacity="0" result="BackgroundImageFix"/>
<feBlend mode="normal" in="SourceGraphic" in2="BackgroundImageFix" result="shape"/>
<feGaussianBlur stdDeviation="8.52904" result="effect1_foregroundBlur_14_3"/>
</filter>
<linearGradient id="paint0_linear_14_3" x1="433.997" y1="367.596" x2="547.775" y2="964.929" gradientUnits="userSpaceOnUse">
<stop stop-color="white"/>
<stop offset="1" stop-color="#FF0000" stop-opacity="0"/>
</linearGradient>
</defs>
</svg>
